# AST/ASF file generated using VICON BodyLanguage
# -----------------------------------------------
:version 1.10
:name VICON
:units
  mass 1.0
  length 0.45
  angle deg
:documentation
   .ast/.asf automatically generated from VICON data using
   VICON BodyBuilder and BodyLanguage model FoxedUp or BRILLIANT.MOD
:root
   order TX TY TZ RX RY RZ
   axis XYZ
   position 0 0 0  
   orientation 0 0 0 
:bonedata
  begin
     id 1 
     name lhipjoint
     direction 0.521689 -0.742065 0.420928 
     length 2.47002 
     axis 0 0 0  XYZ
  end
  begin
     id 2 
     name lfemur
     direction 0.34202 -0.939693 0  
     length 7.24654  
     axis 0 0 20  XYZ
    dof rx ry rz
    limits (-160.0 20.0)
           (-70.0 70.0)
           (-60.0 70.0)
  end
  begin
     id 3 
     name ltibia
     direction 0.34202 -0.939693 0   
     length 8.04849   
     axis 0 0 20   XYZ
    dof rx
    limits (-10.0 170.0)
  end
  begin
     id 4 
     name lfoot
     direction 0.0745411 -0.2048 0.975961   
     length 1.72367   
     axis -90 7.62852e-016 20   XYZ
    dof rx rz
    limits (-45.0 90.0)
           (-70.0 20.0)
  end
  begin
     id 5 
     name ltoes
     direction 1.53556e-011 -4.21901e-011 1   
     length 0.87311   
     axis -90 7.62852e-016 20   XYZ
    dof rx
    limits (-90.0 20.0)
  end
  begin
     id 6 
     name rhipjoint
     direction -0.52849 -0.738415 0.418857   
     length 2.48223  
     axis 0 0 0  XYZ 
  end
  begin
     id 7 
     name rfemur
     direction -0.34202 -0.939693 0   
     length 7.15571   
     axis 0 0 -20   XYZ
    dof rx ry rz
    limits (-160.0 20.0)
           (-70.0 70.0)
           (-70.0 60.0)
  end
  begin
     id 8 
     name rtibia
     direction -0.34202 -0.939693 0   
     length 7.81659   
     axis 0 0 -20   XYZ
    dof rx
    limits (-10.0 170.0)
 end
 begin
     id 9 
     name rfoot
     direction -0.0917348 -0.252039 0.963359   
     length 1.84382  
     axis -90 -7.62852e-016 -20   XYZ
    dof rx rz
    limits (-45.0 90.0)
           (-20.0 70.0)
  end
  begin
     id 10 
     name rtoes
     direction -1.53551e-011 -4.21879e-011 1   
     length 0.927771   
     axis -90 -7.62852e-016 -20   XYZ
    dof rx
    limits (-90.0 20.0)
  end
  begin
     id 11 
     name lowerback
     direction 0.00583058 0.999822 0.0179296   
     length 2.1429   
     axis 0 0 0   XYZ
    dof rx ry rz
    limits (-20.0 45.0)
           (-30.0 30.0)
           (-30.0 30.0)
  end
  begin
     id 12 
     name upperback
     direction -0.0137999 0.999752 -0.0175071   
     length 2.14252   
     axis 0 0 0   XYZ
    dof rx ry rz
    limits (-20.0 45.0)
           (-30.0 30.0)
           (-30.0 30.0)
  end
  begin
     id 13 
     name thorax
     direction -0.0158036 0.99955 -0.0254909   
     length 2.1383   
     axis 0 0 0   XYZ
    dof rx ry rz
    limits (-20.0 45.0)
           (-30.0 30.0)
           (-30.0 30.0)
  end
  begin
     id 14 
     name lowerneck
     direction -0.0101179 0.999403 -0.0330262   
     length 1.65808   
     axis 0 0 0   XYZ
    dof rx ry rz
    limits (-20.0 45.0)
           (-30.0 30.0)
           (-30.0 30.0)
  end
  begin
     id 15 
     name upperneck
     direction 0.0497734 0.995978 -0.074501   
     length 1.5897   
     axis 0 0 0   XYZ
    dof rx ry rz
    limits (-20.0 45.0)
           (-30.0 30.0)
           (-30.0 30.0)
  end
  begin
     id 16
     name head
     direction 0.0189524 0.999519 -0.0245438  
     length 1.74024  
     axis 0 0 0   XYZ
    dof rx ry rz
    limits (-20.0 45.0)
           (-30.0 30.0)
           (-30.0 30.0)
  end
  begin
     id 17 
     name lclavicle
     direction 0.945604 0.324422 0.0241537  
     length 3.59089  
     axis 0 0 0   XYZ
    dof ry rz
    limits (-20.0 10.0)
           (0.0 20.0)
  end
  begin
     id 18 
     name lhumerus
     direction 1 -4.48964e-011 -2.63524e-027   
     length 5.2391   
     axis 180 -30 -90   XYZ
    dof rx ry rz
    limits (-60.0 90.0)
           (-90.0 90.0)
           (-90.0 90.0)
  end
  begin
     id 19
     name lradius
     direction 1 -4.48969e-011 3.86978e-028   
     length 3.31467   
     axis 180 -30 -90   XYZ
    dof rx
    limits (-10.0 170.0)
  end
  begin
     id 20
     name lwrist
     direction 1 -4.48963e-011 7.20928e-028   
     length 1.65734   
     axis -5.52449e-016 90 90   XYZ
    dof ry
    limits (-180.0 0.0)
 end
  begin
     id 21 
     name lhand
     direction 1 -4.48964e-011 1.44186e-027   
     length 0.9659   
     axis -9.20027e-016 90 90   XYZ
    dof rx rz
    limits (-90.0 90.0)
           (-45.0 45.0)
  end
  begin
     id 22 
     name lfingers
     direction 1 -4.48965e-011 2.88371e-027   
     length 0.778733   
     axis -1.84005e-015 90 90   XYZ
    dof rx
    limits (0.0 90.0)
  end
  begin
     id 23
     name lthumb
     direction 0.707107 -6.34931e-011 0.707107   
     length 1.11811   
     axis -90 45 2.85299e-015   XYZ
    dof rx rz
    limits (-45.0 45.0)
           (-45.0 45.0)
  end
  begin
     id 24 
     name rclavicle
     direction -0.923762 0.370785 0.0958234   
     length 3.54196  
     axis 0 0 0   XYZ 
    dof ry rz
    limits (-10.0 20.0)
           (-20.0 0.0)
  end
  begin
     id 25 
     name rhumerus
     direction -1 -4.48966e-011 1.18702e-017  
     length 5.30252   
     axis 180 30 90   XYZ
    dof rx ry rz
    limits (-90.0 60.0)
           (-90.0 90.0)
           (-90.0 90.0)
  end
  begin
     id 26 
     name rradius
     direction -1 -4.48966e-011 4.46736e-027   
     length 3.67875   
     axis 180 30 90   XYZ
    dof rx
    limits (-10.0 170.0)
  end
  begin
     id 27 
     name rwrist
     direction -1 -4.48966e-011 7.20928e-028   
     length 1.83937   
     axis -5.52449e-016 -90 -90   XYZ
    dof ry
    limits (-180.0 0.0)
  end
  begin
     id 28
     name rhand
     direction -1 -4.48973e-011 1.44186e-027   
     length 0.594811   
     axis -9.20027e-016 -90 -90   XYZ
    dof rx rz
    limits (-90.0 90.0)
           (-45.0 45.0)
  end
  begin
     id 29
     name rfingers
     direction -1 -4.48963e-011 2.88371e-027   
     length 0.479552   
     axis -1.84005e-015 -90 -90   XYZ
    dof rx
    limits (0.0 90.0)
  end
  begin
     id 30
     name rthumb
     direction -0.707107 -6.34932e-011 0.707107   
     length 0.688544   
     axis -90 -45 -2.85299e-015   XYZ
    dof rx rz
    limits (-45.0 45.0)
           (-45.0 45.0)
  end
:hierarchy
  begin
    root lhipjoint rhipjoint lowerback
    lhipjoint lfemur
    lfemur ltibia
    ltibia lfoot
    lfoot ltoes
    rhipjoint rfemur
    rfemur rtibia
    rtibia rfoot
    rfoot rtoes
    lowerback upperback
    upperback thorax
    thorax lowerneck lclavicle rclavicle
    lowerneck upperneck
    upperneck head
    lclavicle lhumerus
    lhumerus lradius
    lradius lwrist
    lwrist lhand lthumb
    lhand lfingers
    rclavicle rhumerus
    rhumerus rradius
    rradius rwrist
    rwrist rhand rthumb
    rhand rfingers
  end

#!OML:ASF E:\acrobat2\Project_11_07_03\Capture day 1\Session 1\Acrobat.ASF
:FULLY-SPECIFIED
:DEGREES
79
root 5.98725 18.0457 -25.2695 -142.909 87.0716 -145.572
lowerback -6.65453 -1.31717 -1.74774
upperback 1.55491 -1.63365 0.512411
thorax 5.41629 -0.872525 1.33001
lowerneck 10.9136 -16.3854 -11.6369
upperneck -4.06219 -22.5634 20.8268
head 0.826366 -11.8379 7.97505
rclavicle 4.93234e-015 1.59028e-015
rhumerus -37.5795 1.73783 -81.4946
rradius 28.9023
rwrist -1.46501
rhand -5.93925 -39.6526
rfingers 7.12502
rthumb 19.8908 -68.6547
lclavicle 4.93234e-015 1.59028e-015
lhumerus -31.4991 -5.98247 84.3541
lradius 22.791
lwrist 9.55185
lhand -8.97205 -11.3723
lfingers 7.12502
lthumb 16.9733 17.9061
rfemur 6.47683 13.0682 13.8178
rtibia -1.16642
rfoot -33.5742 -36.0687
rtoes 14.8698
lfemur 5.38266 -5.60214 -7.72742
ltibia 1.75323
lfoot -18.4715 0.680037
ltoes 31.562
80
root 5.98814 18.0454 -25.2714 -143.986 87.0966 -146.634
lowerback -6.65406 -1.23748 -1.73268
upperback 1.58557 -1.52344 0.417339
thorax 5.44075 -0.816326 1.23496
lowerneck 10.9495 -16.5006 -11.5083
upperneck -4.20492 -22.6825 20.9432
head 0.798783 -11.907 7.99256
rclavicle 1.2424e-016 -4.57205e-015
rhumerus -37.6102 1.54551 -81.5752
rradius 28.8997
rwrist -1.71121
rhand -6.25622 -39.5634
rfingers 7.12502
rthumb 19.586 -68.5968
lclavicle 1.2424e-016 -4.57205e-015
lhumerus -31.498 -6.54536 84.4391
lradius 22.8502
lwrist 9.95789
lhand -9.18178 -11.3042
lfingers 7.12502
lthumb 16.7715 17.9914
rfemur 6.55258 13.261 13.7745
rtibia -1.20946
rfoot -33.9775 -35.8821
rtoes 15.8195
lfemur 5.36107 -5.44611 -7.77539
ltibia 1.82022
lfoot -18.3795 0.579541
ltoes 31.8267
81
root 5.98705 18.0442 -25.2721 -143.909 87.0527 -146.614
lowerback -6.68485 -1.21675 -1.65915
upperback 1.57867 -1.49954 0.377167
thorax 5.44696 -0.801385 1.15412
lowerneck 10.9663 -16.5384 -11.4404
upperneck -4.29319 -22.7117 21.0218
head 0.777422 -11.9277 8.01037
rclavicle -9.47954e-015 -2.38542e-015
rhumerus -37.591 1.29661 -81.6233
rradius 28.8352
rwrist -1.69874
rhand -6.6664 -39.7198
rfingers 7.12502
rthumb 19.1916 -68.7929
lclavicle -9.47954e-015 -2.38542e-015
lhumerus -31.5148 -6.80998 84.4588
lradius 22.8716
lwrist 10.2286
lhand -9.27692 -11.2238
lfingers 7.12502
lthumb 16.6799 18.0795
rfemur 6.59235 13.7731 13.9366
rtibia -1.26562
rfoot -34.9206 -35.8081
rtoes 17.5113
lfemur 5.27934 -5.53074 -7.74727
ltibia 1.84658
lfoot -18.4239 0.643109
ltoes 31.8295
82
root 5.98716 18.0436 -25.2734 -142.893 87.04 -145.641
lowerback -6.72245 -1.21106 -1.58029
upperback 1.56647 -1.49766 0.365791
thorax 5.45298 -0.797622 1.09763
lowerneck 11.0311 -16.5302 -11.4383
upperneck -4.37777 -22.6909 21.1235
head 0.751718 -11.926 8.05212
rclavicle 9.30561e-015 4.37326e-015
rhumerus -37.5702 1.01318 -81.569
rradius 28.7559
rwrist -1.34485
rhand -6.69195 -39.7268
rfingers 7.12502
rthumb 19.1671 -68.8024
lclavicle 9.30561e-015 4.37326e-015
lhumerus -31.517 -6.60051 84.3178
lradius 22.8398
lwrist 10.1021
lhand -9.02625 -11.1569
lfingers 7.12502
lthumb 16.9212 18.1259
rfemur 6.53331 13.7611 13.977
rtibia -1.24994
rfoot -34.9906 -35.7653
rtoes 17.7283
lfemur 5.27341 -5.63621 -7.71362
ltibia 1.79205
lfoot -18.4338 0.836602
ltoes 31.4674
83
root 5.98781 18.043 -25.2743 -142.347 87.025 -145.099
lowerback -6.73092 -1.19742 -1.52551
upperback 1.57004 -1.4834 0.352706
thorax 5.45918 -0.788612 1.05471
lowerneck 11.0376 -16.5655 -11.3983
upperneck -4.39308 -22.7312 21.128
head 0.748829 -11.9472 8.04638
rclavicle -6.65929e-015 4.57205e-015
rhumerus -37.6037 0.69991 -81.4737
rradius 28.7554
rwrist -0.938798
rhand -6.56517 -39.6092
rfingers 7.12502
rthumb 19.289 -68.6726
lclavicle -6.65929e-015 4.57205e-015
lhumerus -31.5185 -6.46096 84.1984
lradius 22.8311
lwrist 10.0856
lhand -8.7221 -11.1934
lfingers 7.12502
lthumb 17.2139 18.0641
rfemur 6.47195 13.4367 13.9102
rtibia -1.20158
rfoot -34.6358 -35.6067
rtoes 17.4411
lfemur 5.25969 -5.43614 -7.61911
ltibia 1.80454
lfoot -18.1872 0.763852
ltoes 31.3203
84
root 5.98792 18.0423 -25.2744 -142.398 87.0095 -145.147
lowerback -6.73114 -1.18703 -1.45748
upperback 1.58384 -1.47271 0.301733
thorax 5.47018 -0.78035 0.964593
lowerneck 11.0115 -16.6015 -11.3716
upperneck -4.35279 -22.7792 21.174
head 0.775258 -11.9698 8.04694
rclavicle 2.18663e-015 5.56597e-015
rhumerus -37.6382 0.510952 -81.5041
rradius 28.7767
rwrist -0.759504
rhand -6.59483 -39.5896
rfingers 7.12502
rthumb 19.2605 -68.6558
lclavicle 2.18663e-015 5.56597e-015
lhumerus -31.5136 -6.49538 84.0918
lradius 22.8144
lwrist 10.1687
lhand -8.55749 -11.3132
lfingers 7.12502
lthumb 17.3724 17.9304
rfemur 6.46019 13.2989 13.8802
rtibia -1.19241
rfoot -34.4783 -35.5248
rtoes 17.375
lfemur 5.20447 -5.03253 -7.50695
ltibia 1.88483
lfoot -17.8944 0.44514
ltoes 31.443
85
root 5.98945 18.0429 -25.2761 -141.975 87.0209 -144.686
lowerback -6.70564 -1.19548 -1.45478
upperback 1.59526 -1.48585 0.325773
thorax 5.46863 -0.787249 0.986928
lowerneck 11.0625 -16.5791 -11.4682
upperneck -4.33579 -22.7663 21.2761
head 0.793989 -11.9673 8.09299
rclavicle -9.41742e-015 2.98177e-015
rhumerus -37.6781 0.554575 -81.5077
rradius 28.7771
rwrist -0.698596
rhand -6.7025 -39.5584
rfingers 7.12502
rthumb 19.1569 -68.635
lclavicle -9.41742e-015 2.98177e-015
lhumerus -31.5383 -6.31293 84.0246
lradius 22.7451
lwrist 10.0017
lhand -8.51563 -11.4696
lfingers 7.12502
lthumb 17.4126 17.7705
rfemur 6.52947 13.4857 13.9436
rtibia -1.21396
rfoot -34.6512 -35.564
rtoes 17.5157
lfemur 5.26005 -4.96427 -7.48688
ltibia 1.86839
lfoot -17.8947 0.354875
ltoes 31.552
86
root 5.99192 18.045 -25.2798 -141.503 87.056 -144.154
lowerback -6.66425 -1.1961 -1.52965
upperback 1.60749 -1.4857 0.420001
thorax 5.4626 -0.791363 1.12761
lowerneck 11.0797 -16.5756 -11.5613
upperneck -4.32525 -22.779 21.2343
head 0.802015 -11.9725 8.09186
rclavicle 3.60297e-016 -1.78906e-015
rhumerus -37.7509 0.554781 -81.3594
rradius 28.8165
rwrist -0.555848
rhand -6.875 -39.4287
rfingers 7.12502
rthumb 18.991 -68.5216
lclavicle 3.60297e-016 -1.78906e-015
lhumerus -31.5816 -6.10331 84.1026
lradius 22.7091
lwrist 9.96924
lhand -8.60165 -11.5283
lfingers 7.12502
lthumb 17.3299 17.7191
rfemur 6.65492 13.8705 14.0447
rtibia -1.26531
rfoot -35.1272 -35.6973
rtoes 17.6375
lfemur 5.38177 -5.09086 -7.53736
ltibia 1.79762
lfoot -18.0277 0.473079
ltoes 31.3416
87
root 5.99311 18.0457 -25.282 -142.11 87.1081 -144.744
lowerback -6.66457 -1.15578 -1.5596
upperback 1.62663 -1.42764 0.391026
thorax 5.48094 -0.763395 1.12073
lowerneck 11.0775 -16.6198 -11.4789
upperneck -4.35807 -22.8223 21.198
head 0.785928 -11.9946 8.06923
rclavicle 6.13748e-015 -2.78299e-015
rhumerus -37.7979 0.513321 -81.3992
rradius 28.8143
rwrist -0.625528
rhand -7.02981 -39.3562
rfingers 7.12502
rthumb 18.8422 -68.4636
lclavicle 6.13748e-015 -2.78299e-015
lhumerus -31.5709 -6.18636 84.1222
lradius 22.7115
lwrist 10.0717
lhand -8.59678 -11.47
lfingers 7.12502
lthumb 17.3345 17.7769
rfemur 6.69933 13.9538 13.9908
rtibia -1.30193
rfoot -35.2732 -35.7345
rtoes 17.4716
lfemur 5.4193 -5.06469 -7.62275
ltibia 1.78428
lfoot -18.0565 0.429219
ltoes 31.5273
88
root 5.99294 18.0455 -25.2824 -142.295 87.123 -144.943
lowerback -6.68475 -1.1332 -1.53795
upperback 1.63017 -1.39678 0.348329
thorax 5.49343 -0.746767 1.0673
lowerneck 11.0984 -16.6596 -11.3855
upperneck -4.38544 -22.8608 21.1363
head 0.7624 -12.0149 8.04093
rclavicle 1.13183e-014 1.59028e-015
rhumerus -37.8208 0.660283 -81.5697
rradius 28.7839
rwrist -0.781022
rhand -6.80993 -39.5387
rfingers 7.12502
rthumb 19.0536 -68.6254
lclavicle 1.13183e-014 1.59028e-015
lhumerus -31.5847 -6.28593 84.0793
lradius 22.7102
lwrist 10.008
lhand -8.49921 -11.3814
lfingers 7.12502
lthumb 17.4284 17.8573
rfemur 6.64246 13.695 13.9087
rtibia -1.30285
rfoot -34.5962 -35.9259
rtoes 16.4013
lfemur 5.41477 -5.19171 -7.67072
ltibia 1.76406
lfoot -18.1466 0.43359
ltoes 32.0368
89
root 5.99292 18.0452 -25.2831 -141.708 87.1052 -144.358
lowerback -6.68584 -1.13149 -1.49255
upperback 1.62887 -1.39883 0.355145
thorax 5.49174 -0.746379 1.04866
lowerneck 11.0815 -16.7038 -11.3172
upperneck -4.35408 -22.9182 20.9403
head 0.750888 -12.0372 7.96878
rclavicle 7.59109e-015 -7.95139e-016
rhumerus -37.8424 0.655886 -81.5939
rradius 28.7775
rwrist -0.647182
rhand -6.54854 -39.6884
rfingers 7.12502
rthumb 19.305 -68.7502
lclavicle 7.59109e-015 -7.95139e-016
lhumerus -31.641 -6.39336 84.1033
lradius 22.7242
lwrist 10.0931
lhand -8.62095 -11.2792
lfingers 7.12502
lthumb 17.3113 17.9698
rfemur 6.62028 13.6188 13.9479
rtibia -1.29983
rfoot -34.1647 -36.1548
rtoes 15.5611
lfemur 5.42235 -5.24971 -7.63945
ltibia 1.74925
lfoot -18.1484 0.501158
ltoes 32.2274
90
root 5.99369 18.0446 -25.2844 -142.56 87.1268 -145.184
lowerback -6.67057 -1.14144 -1.53354
upperback 1.64409 -1.40784 0.33916
thorax 5.49995 -0.752045 1.05413
lowerneck 11.0806 -16.7127 -11.2504
upperneck -4.35715 -22.9233 20.7689
head 0.721574 -12.0362 7.91242
rclavicle -5.54112e-015 3.97569e-015
rhumerus -37.821 0.635093 -81.6024
rradius 28.7222
rwrist -0.586784
rhand -6.47974 -39.6243
rfingers 7.12502
rthumb 19.3711 -68.6795
lclavicle -5.54112e-015 3.97569e-015
lhumerus -31.6644 -6.4444 84.1031
lradius 22.7245
lwrist 10.2005
lhand -8.83866 -11.2349
lfingers 7.12502
lthumb 17.1017 18.0324
rfemur 6.70402 13.902 13.9498
rtibia -1.32133
rfoot -34.8303 -35.985
rtoes 16.9062
lfemur 5.44222 -5.11743 -7.68404
ltibia 1.76507
lfoot -18.024 0.429782
ltoes 32.4859
91
root 5.99394 18.0444 -25.2859 -143.613 87.1437 -146.22
lowerback -6.6547 -1.16134 -1.60293
upperback 1.65525 -1.42863 0.340901
thorax 5.50518 -0.764757 1.09269
lowerneck 11.0958 -16.6987 -11.2084
upperneck -4.37962 -22.8989 20.6278
head 0.686015 -12.0224 7.87297
rclavicle 3.8763e-015 2.18663e-015
rhumerus -37.7953 0.737619 -81.6201
rradius 28.6611
rwrist -0.578375
rhand -6.21195 -39.6144
rfingers 7.12502
rthumb 19.6286 -68.6434
lclavicle 3.8763e-015 2.18663e-015
lhumerus -31.6628 -6.29764 84.0518
lradius 22.6801
lwrist 9.96881
lhand -8.97195 -11.2826
lfingers 7.12502
lthumb 16.9734 17.9958
rfemur 6.77558 14.1636 13.9351
rtibia -1.34199
rfoot -35.4738 -35.7975
rtoes 18.2278
lfemur 5.47862 -5.29304 -7.7913
ltibia 1.72871
lfoot -18.1742 0.366342
ltoes 33.0564
92
root 5.99381 18.0445 -25.2865 -143.603 87.1325 -146.214
lowerback -6.65874 -1.17121 -1.60704
upperback 1.66114 -1.44211 0.354935
thorax 5.5146 -0.771897 1.1079
lowerneck 11.1118 -16.6688 -11.1579
upperneck -4.42304 -22.8481 20.5185
head 0.643113 -11.997 7.84515
rclavicle -1.22998e-015 7.35503e-015
rhumerus -37.7859 0.72984 -81.601
rradius 28.6409
rwrist -0.364477
rhand -5.73426 -39.8165
rfingers 7.12502
rthumb 20.0878 -68.7981
lclavicle -1.22998e-015 7.35503e-015
lhumerus -31.6833 -6.28015 84.0649
lradius 22.6707
lwrist 9.88663
lhand -9.11626 -11.3172
lfingers 7.12502
lthumb 16.8345 17.9731
rfemur 6.77263 14.1514 13.937
rtibia -1.34283
rfoot -35.4954 -35.7621
rtoes 18.2919
lfemur 5.49128 -5.44337 -7.81773
ltibia 1.70282
lfoot -18.3123 0.413731
ltoes 32.978
